# xmcd
#
# Track frame offsets:
#	150
#	17084
#	33638
#	49645
#	68449
#	87142
#	104246
#	120525
#	137532
#	152484
#	168502
#	183600
#
# Disc length: 2668 seconds
#
# Revision: 0
# Processed by: cddbd v1.4PL0 Copyright (c) Steve Scherf et al.
# Submitted via: EasyCDDAExtractor 4.6.0.1
#
DISCID=990a6a0c
DTITLE=Modern Talking - Universe
DYEAR=2003
DGENRE=
TTITLE0=Tv makes the superstar 
TTITLE1=Im no rockefeller 
TTITLE2=Mystery 
TTITLE3=Everybody needs somebody
TTITLE4=Heart of an angel
TTITLE5=Who will be there
TTITLE6=Knocking on my door
TTITLE7=Should i would I could I
TTITLE8=Blackbird
TTITLE9=Life is to short
TTITLE10=11 - Nothing but the truth
TTITLE11=Superstar
EXTD=
EXTT0=
EXTT1=
EXTT2=
EXTT3=
EXTT4=
EXTT5=
EXTT6=
EXTT7=
EXTT8=
EXTT9=
EXTT10=
EXTT11=
PLAYORDER=
